{
  "asset": {
    "version": "2.0",
    "generator": "SceneBreaker original geometry fixture"
  },
  "scene": 0,
  "scenes": [
    {
      "nodes": [
        0,
        1,
        2
      ]
    }
  ],
  "nodes": [
    {
      "name": "Floor reference",
      "mesh": 0,
      "translation": [
        5,
        -0.025,
        3
      ],
      "scale": [
        10,
        0.05,
        6
      ]
    },
    {
      "name": "Rack A",
      "mesh": 0,
      "translation": [
        3,
        0.6,
        2
      ],
      "scale": [
        2,
        1.2,
        1
      ]
    },
    {
      "name": "Rack B",
      "mesh": 0,
      "translation": [
        7,
        0.6,
        4
      ],
      "scale": [
        2,
        1.2,
        1
      ]
    }
  ],
  "meshes": [
    {
      "primitives": [
        {
          "attributes": {
            "POSITION": 0
          },
          "indices": 1,
          "material": 0
        }
      ]
    }
  ],
  "materials": [
    {
      "pbrMetallicRoughness": {
        "baseColorFactor": [
          0.6,
          0.64,
          0.73,
          1
        ],
        "metallicFactor": 0,
        "roughnessFactor": 0.8
      },
      "doubleSided": true
    }
  ],
  "buffers": [
    {
      "uri": "data:application/octet-stream;base64,",
      "byteLength": 168
    }
  ],
  "bufferViews": [
    {
      "buffer": 0,
      "byteOffset": 0,
      "byteLength": 96,
      "target": 34962
    },
    {
      "buffer": 0,
      "byteOffset": 96,
      "byteLength": 72,
      "target": 34963
    }
  ],
  "accessors": [
    {
      "bufferView": 0,
      "componentType": 5126,
      "count": 8,
      "type": "VEC3",
      "min": [
        -0.5,
        -0.5,
        -0.5
      ],
      "max": [
        0.5,
        0.5,
        0.5
      ]
    },
    {
      "bufferView": 1,
      "componentType": 5123,
      "count": 36,
      "type": "SCALAR"
    }
  ]
}
